Coordinates
version=1
nRows=19
nColumns=24
inDegrees=yes

Units are S.I. units (second, meters, Newtons, ...)
Angles are in degrees.

endheader
time	pelvis_tilt	pelvis_list	pelvis_rotation	pelvis_tx	pelvis_ty	pelvis_tz	hip_flexion_r	hip_adduction_r	hip_rotation_r	knee_angle_r	ankle_angle_r	subtalar_angle_r	mtp_angle_r	hip_flexion_l	hip_adduction_l	hip_rotation_l	knee_angle_l	ankle_angle_l	subtalar_angle_l	mtp_angle_l	lumbar_extension	lumbar_bending	lumbar_rotation
      0.44600000	     -4.47954128	      3.53457579	     -2.01823872	     -0.76604041	      1.05205914	      0.32689987	     27.39963418	      0.04421601	     -4.92357628	     -7.09616935	      2.96013845	     -5.65330530	     -0.10016109	     -6.19648231	      7.04008576	     -0.65767895	     -6.77398559	     12.17822627	     -1.74545933	     -0.02790763	      8.29816956	     -1.10520998	     -2.07944760
      0.45016667	     -4.51666060	      3.53403309	     -2.01735082	     -0.76048518	      1.05145041	      0.32721334	     27.30150060	      0.11913253	     -4.81147786	     -6.91417151	      2.87613214	     -5.58351422	     -0.10396711	     -6.24356621	      7.02666692	     -0.68268431	     -7.26646968	     12.21406116	     -1.81031371	     -0.04899011	      8.35248724	     -1.10349865	     -2.12663348
      0.45433333	     -4.56063086	      3.46626424	     -2.09378997	     -0.75461071	      1.05086112	      0.32766552	     27.18174466	      0.29987853	     -4.59550126	     -6.76848507	      2.64540976	     -5.48567669	     -0.11410842	     -6.31114608	      6.93984150	     -0.76901585	     -7.73994891	     12.42295723	     -1.85806977	     -0.10662054	      8.43580688	     -1.07414815	     -2.27571768
      0.45850000	     -4.55696793	      3.47647215	     -2.09785079	     -0.74907112	      1.05034015	      0.32789903	     27.07070545	      0.34963679	     -4.49452548	     -6.78900721	      2.58778590	     -5.46170472	     -0.11607224	     -6.35716500	      6.94139831	     -0.77956900	     -8.32029220	     12.44830873	     -1.86104482	     -0.12374928	      8.49758590	     -1.03573286	     -2.31058093
      0.46266667	     -4.55778086	      3.43684208	     -2.21835716	     -0.74327128	      1.04980384	      0.32848734	     26.93413858	      0.52194657	     -4.13343389	     -6.80638469	      2.21538224	     -5.56284884	     -0.12936411	     -6.40179808	      6.87452982	     -1.05686225	     -8.93526140	     12.84462000	     -1.53987104	     -0.24148430	      8.56031122	     -0.98743366	     -2.56077434
      0.46683333	     -4.55783692	      3.41200488	     -2.18425705	     -0.73758507	      1.04936284	      0.32869971	     26.80945869	      0.58820098	     -4.01734549	     -6.93484173	      2.18177198	     -5.55749330	     -0.12925936	     -6.40495671	      6.82001782	     -1.04902939	     -9.60948087	     12.81478991	     -1.52510096	     -0.25491414	      8.60289731	     -0.96454337	     -2.56849079
      0.47100000	     -4.55832437	      3.35138838	     -2.25833580	     -0.73174901	      1.04891419	      0.32949755	     26.64546760	      0.78548713	     -3.52236585	     -7.02068194	      1.78676030	     -6.05628823	     -0.13163322	     -6.37504648	      6.67860057	     -1.48100778	    -10.37684091	     13.11864000	     -0.70533058	     -0.42738321	      8.65500074	     -1.01575638	     -2.72597080
      0.47516667	     -4.53733560	      3.33055182	     -2.24548998	     -0.72603139	      1.04854189	      0.32967286	     26.51445391	      0.84152503	     -3.40001040	     -7.27201490	      1.72783022	     -6.04089897	     -0.13017554	     -6.35265239	      6.62790161	     -1.48155478	    -11.15125056	     13.08430369	     -0.71654519	     -0.43783706	      8.68957941	     -0.93553023	     -2.73256498
      0.47933333	     -4.51743299	      3.29904522	     -2.22726607	     -0.72025687	      1.04821449	      0.32989977	     26.37348935	      0.90833195	     -3.24494883	     -7.54384330	      1.62067713	     -6.02575420	     -0.12828134	     -6.29961133	      6.55183288	     -1.53860451	    -11.98934146	     13.05201833	     -0.69839740	     -0.44695540	      8.71043037	     -0.86051796	     -2.74212472
      0.48350000	     -4.54026909	      3.27505454	     -2.42434180	     -0.71443369	      1.04774456	      0.33077773	     26.29863844	      1.10243629	     -2.77486390	     -7.83303354	      0.97216485	     -6.37497944	     -0.11630152	     -6.15745952	      6.45403588	     -2.14136053	    -12.91037259	     13.15577471	      0.05808058	     -0.49993013	      8.68052788	     -0.80831081	     -2.79762224
      0.48766667	     -4.53551384	      3.17598911	     -2.33375376	     -0.70850962	      1.04753620	      0.33108891	     26.11758056	      1.21795200	     -2.58085536	     -8.08234468	      0.89355173	     -6.48676725	     -0.10824517	     -6.02360975	      6.25763365	     -2.24498805	    -13.90007598	     13.12415215	      0.20515428	     -0.51275388	      8.67472390	     -0.76491776	     -2.78572942
      0.49183333	     -4.50216593	      3.16430012	     -2.49437408	     -0.70278536	      1.04723728	      0.33187231	     25.99597206	      1.36452514	     -2.20051197	     -8.45036365	      0.39277975	     -6.99301049	     -0.08373534	     -5.87214485	      6.16011842	     -2.73595059	    -14.94423198	     13.09175611	      1.09539177	     -0.53047786	      8.73513694	     -0.69295411	     -2.78906636
      0.49600000	     -4.47859825	      3.05765226	     -2.42850900	     -0.69685732	      1.04711900	      0.33218660	     25.80248759	      1.48404228	     -2.03883003	     -8.74956738	      0.28932028	     -7.04188006	     -0.07474405	     -5.69425567	      5.94735115	     -2.87543988	    -16.05361993	     13.02953394	      1.17097785	     -0.53065989	      8.71720548	     -0.62472409	     -2.78046557
      0.50016667	     -4.44599181	      3.00939847	     -2.55934003	     -0.69108383	      1.04692929	      0.33293050	     25.66581187	      1.64190246	     -1.75401069	     -9.13146761	     -0.18279802	     -7.44649155	     -0.04663024	     -5.47740486	      5.78837324	     -3.35177573	    -17.21811873	     12.81254134	      1.96617034	     -0.50696599	      8.72729150	     -0.50581269	     -2.77526449
      0.50433333	     -4.34353922	      2.93194259	     -2.53288721	     -0.68531554	      1.04697736	      0.33314806	     25.41851718	      1.71442303	     -1.63378041	     -9.48936968	     -0.26014731	     -7.43717005	     -0.04149424	     -5.31027646	      5.61907009	     -3.44922331	    -18.44367155	     12.71308531	      1.98196476	     -0.50226087	      8.78504309	     -0.42333758	     -2.76846619
      0.50850000	     -4.38261538	      2.79113945	     -2.62480373	     -0.67933821	      1.04681990	      0.33428069	     25.28390411	      1.99384359	     -1.23116028	     -9.78048515	     -0.79946226	     -8.28400013	      0.02503076	     -4.94555255	      5.27539937	     -4.08843566	    -19.78272660	     12.59850395	      3.13543697	     -0.36703871	      8.79862829	     -0.32945779	     -2.69198931
      0.51266667	     -4.34126250	      2.67879502	     -2.61980996	     -0.67354026	      1.04684174	      0.33465921	     25.10455567	      2.11978301	     -1.18780634	    -10.16096260	     -0.92911928	     -8.25036688	      0.03647251	     -4.63245581	      5.03019409	     -4.32693057	    -21.14436443	     12.31793198	      3.23034858	     -0.34741493	      8.70596051	     -0.19710678	     -2.69702693
      0.51683333	     -4.30585909	      2.55581768	     -2.65290689	     -0.66773635	      1.04688011	      0.33515760	     24.93645283	      2.27376763	     -1.15919798	    -10.55212737	     -1.12028885	     -8.26977030	      0.05070411	     -4.27614239	      4.75661089	     -4.65755279	    -22.56304167	     11.87122051	      3.53085929	     -0.31254977	      8.62241155	     -0.04253669	     -2.70123388
      0.52100000	     -4.25262109	      2.46068818	     -2.73445514	     -0.66203066	      1.04694005	      0.33577244	     24.75845386	      2.41802792	     -1.02849481	    -10.94807830	     -1.40437542	     -8.46886455	      0.07773077	     -3.90587350	      4.50431084	     -4.99311521	    -24.00601908	     11.19589515	      4.21142275	     -0.22121602	      8.65957643	      0.15105771	     -2.68190715
